<?xml version="1.0" encoding="UTF-8" standalone="no"?>
<!-- Created with Inkscape (http://www.inkscape.org/) -->

<svg
   xmlns:dc="http://purl.org/dc/elements/1.1/"
   xmlns:cc="http://creativecommons.org/ns#"
   xmlns:rdf="http://www.w3.org/1999/02/22-rdf-syntax-ns#"
   xmlns:svg="http://www.w3.org/2000/svg"
   xmlns="http://www.w3.org/2000/svg"
   version="1.1"
   width="63.97776"
   height="63.985764"
   id="svg2">
  <defs
     id="defs4" />
  <metadata
     id="metadata7">
    <rdf:RDF>
      <cc:Work
         rdf:about="">
        <dc:format>image/svg+xml</dc:format>
        <dc:type
           rdf:resource="http://purl.org/dc/dcmitype/StillImage" />
        <dc:title></dc:title>
      </cc:Work>
    </rdf:RDF>
  </metadata>
  <g
     transform="translate(-239.44047,-363.22698)"
     id="layer1">
    <path
       d="m 290.96332,384.19885 c -0.59424,-6.27896 -6.01049,-8.39164 -12.8518,-9.00126 l 0.0128,-8.70824 -5.30062,-0.007 -0.0123,8.47872 c -1.39346,-0.002 -2.81788,0.0235 -4.23308,0.0496 l 0.0135,-8.53485 -5.29778,-0.008 -0.0149,8.70575 c -1.14765,0.0217 -2.27469,0.0414 -3.3736,0.0405 l -5.3e-4,-0.0271 -7.31086,-0.0134 -0.007,5.66124 c 0,0 3.91442,-0.0688 3.84925,0.003 2.14703,0.004 2.84397,1.25133 3.04562,2.32724 l -0.0143,9.92049 c 0.14815,0.001 0.34143,0.008 0.56022,0.0378 -0.17659,-3e-5 -0.36561,-0.002 -0.55995,-1.2e-4 l -0.022,13.89765 c -0.0952,0.67556 -0.49402,1.75232 -1.99407,1.75269 0.0678,0.0602 -3.85316,-0.007 -3.85316,-0.007 l -1.06259,6.32874 6.89801,0.01 c 1.28367,0.003 2.54669,0.0271 3.78665,0.0368 l -0.0109,8.80736 5.29494,0.009 0.0128,-8.71427 c 1.45379,0.0322 2.86073,0.0459 4.23429,0.0466 l -0.0152,8.67412 5.30061,0.007 0.0147,-8.79173 c 8.91219,-0.49805 15.1527,-2.73385 15.93965,-11.10113 0.63533,-6.73752 -2.53,-9.74895 -7.5868,-10.97123 3.07554,-1.56033 5.00104,-4.31475 4.55848,-8.90928 z m -7.44387,18.82121 c -0.007,6.58182 -11.27551,5.81643 -14.86789,5.81449 l 0.0187,-11.66923 c 3.59343,0.006 14.85983,-1.01023 14.84919,5.85474 z m -2.44078,-16.46738 c -0.0106,5.98811 -9.40836,5.27536 -12.40064,5.27116 l 0.016,-10.58348 c 2.99229,0.004 12.39322,-0.93337 12.38461,5.31232 z"
       id="path3010"
       style="fill:#ffffff" />
  </g>
</svg>
