<svg xmlns="http://www.w3.org/2000/svg" width="16" height="16" fill="currentColor" viewBox="0 0 192 192"><path d="M-.07,0V192H191.93V38h-38V117.2l-28.5,28.8h-29.6l-24.89,25.2v-25.2H38.93V38h115V0H-.07Z"/><path d="M72.56,73.7l-7.64,7.64,7.87,7.87-7.87,7.87,7.64,7.64,7.87-7.87,7.87,7.87,7.63-7.64-7.87-7.87,7.87-7.87-7.63-7.64-7.87,7.87-7.87-7.87Z"/><path d="M137.39,73.7l-7.87,7.87-7.87-7.87-7.63,7.63,7.87,7.87-7.87,7.87,7.64,7.64,7.87-7.87,7.87,7.87,7.64-7.64-7.87-7.87,7.87-7.87-7.64-7.64Z"/></svg>